<svg height="511pt" viewBox="-31 1 511 511.99998" width="511pt" xmlns="http://www.w3.org/2000/svg"><path d="m361.234375 456.167969c-21.757813-56.464844-72.21875-73.867188-72.21875-73.867188h-128.546875s-45.039062 15.515625-68.371094 64.847657c-1.367187 2.894531-2.65625 5.898437-3.855468 9.023437l56.519531 55.828125h159.964843zm0 0" fill="#da5b65"/><path d="m119.148438 456.171875c1.199218-3.125 2.488281-6.128906 3.855468-9.023437 23.332032-49.332032 68.371094-64.847657 68.371094-64.847657h-30.90625s-45.039062 15.515625-68.371094 64.847657c-1.367187 2.894531-2.65625 5.898437-3.855468 9.023437zm0 0" fill="#c0344a"/><path d="m439.972656 221.367188c0-55.226563-22.597656-107.058594-63.625-145.949219-42.085937-39.894531-98.539062-55.679688-151.605468-75.417969-53.066407 19.738281-109.519532 35.523438-151.605469 75.417969-41.027344 38.890625-63.621094 90.722656-63.621094 145.949219zm0 0" fill="#465059"/><path d="m114.34375 75.417969c36.675781-34.765625 84.257812-51.222657 131.003906-67.941407-6.898437-2.464843-13.78125-4.9375-20.605468-7.476562-53.066407 19.738281-109.519532 35.523438-151.605469 75.417969-41.027344 38.890625-63.621094 90.722656-63.621094 145.949219h41.207031c0-55.226563 22.59375-107.058594 63.621094-145.949219zm0 0" fill="#3c474d"/><path d="m448.984375 224.578125c0 21.789063-17.667969 39.457031-39.460937 39.457031-21.789063 0-39.457032-17.667968-39.457032-39.457031 0-21.792969 17.667969-39.460937 39.457032-39.460937 21.792968 0 39.460937 17.667968 39.460937 39.460937zm0 0" fill="#dfb297"/><path d="m268.382812 396.527344c0 24.101562-19.539062 43.640625-43.640624 43.640625-24.101563 0-43.640626-19.539063-43.640626-43.640625 0-24.101563 19.539063-43.640625 43.640626-43.640625 24.101562 0 43.640624 19.539062 43.640624 43.640625zm0 0" fill="#dfb297"/><path d="m409.523438 220.996094c-.085938-39.292969-18.550782-76.570313-50.007813-100.121094-38.042969-28.476562-90.097656-34.402344-131.300781 3.660156-1.964844 1.816406-4.976563 1.816406-6.941406 0-41.207032-38.0625-93.261719-32.140625-131.300782-3.660156-31.457031 23.550781-49.925781 60.828125-50.011718 100.121094v.371094c0 96.738281 82.730468 175.160156 184.785156 175.160156 102.050781 0 184.78125-78.421875 184.78125-175.160156-.003906-.121094-.003906-.246094-.003906-.371094zm0 0" fill="#fbc4ac"/><path d="m70.867188 221.367188c0-.121094 0-.246094 0-.371094.085937-39.292969 18.550781-76.570313 50.007812-100.121094 15.007812-11.234375 32.199219-18.953125 50.039062-21.855469-28.417968-4.773437-57.371093 4.207031-80.945312 21.855469-21.746094 16.28125-37.277344 39.121094-44.828125 64.652344-1.550781-.265625-3.265625-.410156-5.179687-.410156-21.792969 0-39.460938 17.667968-39.460938 39.460937s17.667969 39.457031 39.460938 39.457031c2.007812 0 3.808593-.152344 5.417968-.441406 19.933594 76.335938 92.671875 132.933594 179.363282 132.933594 5.207031 0 10.355468-.214844 15.453124-.617188-94.820312-7.441406-169.328124-82.738281-169.328124-174.542968zm0 0" fill="#dfb297"/><path d="m321.265625 236.324219c-4.269531 0-7.726563-3.457031-7.726563-7.726563v-18.765625c0-4.269531 3.457032-7.726562 7.726563-7.726562 4.265625 0 7.726563 3.457031 7.726563 7.726562v18.765625c0 4.269532-3.460938 7.726563-7.726563 7.726563zm0 0" fill="#3a484a"/><path d="m334.042969 263.910156h-25.558594c-4.269531 0-7.726563-3.457031-7.726563-7.726562 0-4.265625 3.457032-7.726563 7.726563-7.726563h25.558594c4.269531 0 7.726562 3.460938 7.726562 7.726563 0 4.269531-3.457031 7.726562-7.726562 7.726562zm0 0" fill="#f98084"/><path d="m128.222656 236.324219c-4.269531 0-7.726562-3.457031-7.726562-7.726563v-18.765625c0-4.269531 3.457031-7.726562 7.726562-7.726562 4.265625 0 7.722656 3.457031 7.722656 7.726562v18.765625c0 4.269532-3.457031 7.726563-7.722656 7.726563zm0 0" fill="#3a484a"/><path d="m141 263.910156h-25.5625c-4.265625 0-7.722656-3.457031-7.722656-7.726562 0-4.265625 3.457031-7.726563 7.722656-7.726563h25.5625c4.269531 0 7.726562 3.460938 7.726562 7.726563 0 4.269531-3.457031 7.726562-7.726562 7.726562zm0 0" fill="#f98084"/><path d="m224.742188 262.851562c-8.957032 0-17.371094-3.746093-23.078126-10.28125-2.8125-3.210937-2.480468-8.09375.730469-10.902343 3.210938-2.808594 8.09375-2.480469 10.902344.734375 2.777344 3.175781 6.949219 4.996094 11.445313 4.996094 4.5 0 8.671874-1.820313 11.449218-4.996094 2.808594-3.214844 7.6875-3.542969 10.898438-.734375 3.214844 2.808593 3.542968 7.691406.734375 10.902343-5.710938 6.535157-14.125 10.28125-23.082031 10.28125zm0 0" fill="#3a484a"/><path d="m89.089844 487.472656c-8.40625 0-15.222656-6.816406-15.222656-15.222656v-27.738281c0-8.410157 6.816406-15.222657 15.222656-15.222657s15.222656 6.8125 15.222656 15.222657v27.738281c0 8.40625-6.816406 15.222656-15.222656 15.222656zm0 0" fill="#dfb297"/><path d="m104.226562 453.136719c-5.640624 0-11.03125 1.078125-15.984374 3.035156-21.730469 8.59375-32.871094 34.035156-24.546876 55.828125h81.066407c1.835937-4.8125 2.851562-10.027344 2.851562-15.476562 0-23.960938-19.425781-43.386719-43.386719-43.386719zm0 0" fill="#fbc4ac"/><path d="m360.394531 487.472656c8.410157 0 15.222657-6.816406 15.222657-15.222656v-27.738281c0-8.410157-6.8125-15.222657-15.222657-15.222657-8.40625 0-15.222656 6.8125-15.222656 15.222657v27.738281c0 8.40625 6.816406 15.222656 15.222656 15.222656zm0 0" fill="#dfb297"/><path d="m345.257812 453.136719c5.644532 0 11.03125 1.078125 15.984376 3.035156 21.730468 8.59375 32.871093 34.03125 24.550781 55.828125h-81.070313c-1.835937-4.8125-2.851562-10.027344-2.851562-15.476562 0-23.960938 19.425781-43.386719 43.386718-43.386719zm0 0" fill="#fbc4ac"/></svg>